# Blender v2.80 (sub 75) OBJ File: ''
# www.blender.org
mtllib cube.mtl
o Cube_Cube.001
v -1.000000 -1.000000 -1.000000
v -1.000000 1.000000 -1.000000
v 1.000000 -1.000000 -1.000000
v 1.000000 1.000000 -1.000000
v -1.000000 -1.000000 1.000000
v -1.000000 1.000000 1.000000
v 1.000000 -1.000000 1.000000
v 1.000000 1.000000 1.000000
vt 1.000167 0.665166
vt 0.749750 0.332333
vt 0.999666 0.331833
vt 0.750250 0.665666
vt 0.499750 0.332833
vt 0.500250 0.666166
vt 0.249792 0.333334
vt 0.250292 0.666666
vt -0.000167 0.333834
vt 0.249291 0.000001
vt 0.499250 -0.000499
vt 0.500750 0.999499
vt 0.000333 0.667166
vt 0.250792 0.999999
vn -0.4082 0.4082 -0.8165
vn 0.4082 -0.4082 -0.8165
vn -0.6667 -0.6666 -0.3333
vn 0.6667 0.6667 -0.3333
vn 0.6667 -0.6667 0.3333
vn 0.4082 0.4082 0.8165
vn -0.4082 -0.4082 0.8165
vn 0.6667 -0.6666 0.3333
vn -0.6667 0.6667 0.3333
vn -0.6667 -0.6667 -0.3333
vn 0.6667 0.6666 -0.3333
vn -0.6667 0.6666 0.3333
usemtl None
s off
f 2/1/1 3/2/2 1/3/3
f 4/4/4 7/5/5 3/2/2
f 8/6/6 5/7/7 7/5/8
f 6/8/9 1/9/10 5/7/7
f 7/5/5 1/10/10 3/11/2
f 4/12/4 6/8/9 8/6/6
f 2/1/1 4/4/11 3/2/2
f 4/4/4 8/6/6 7/5/5
f 8/6/6 6/8/12 5/7/7
f 6/8/9 2/13/1 1/9/10
f 7/5/5 5/7/7 1/10/10
f 4/12/4 2/14/1 6/8/9
