# Blender v2.80 (sub 75) OBJ File: ''
# www.blender.org
mtllib cylinder.mtl
o Cylinder
v 0.000000 -1.000000 -1.000000
v 0.000000 1.000000 -1.000000
v 0.195090 -1.000000 -0.980785
v 0.195090 1.000000 -0.980785
v 0.382683 -1.000000 -0.923880
v 0.382683 1.000000 -0.923880
v 0.555570 -1.000000 -0.831470
v 0.555570 1.000000 -0.831470
v 0.707107 -1.000000 -0.707107
v 0.707107 1.000000 -0.707107
v 0.831470 -1.000000 -0.555570
v 0.831470 1.000000 -0.555570
v 0.923880 -1.000000 -0.382683
v 0.923880 1.000000 -0.382683
v 0.980785 -1.000000 -0.195090
v 0.980785 1.000000 -0.195090
v 1.000000 -1.000000 -0.000000
v 1.000000 1.000000 -0.000000
v 0.980785 -1.000000 0.195090
v 0.980785 1.000000 0.195090
v 0.923880 -1.000000 0.382683
v 0.923880 1.000000 0.382683
v 0.831470 -1.000000 0.555570
v 0.831470 1.000000 0.555570
v 0.707107 -1.000000 0.707107
v 0.707107 1.000000 0.707107
v 0.555570 -1.000000 0.831470
v 0.555570 1.000000 0.831470
v 0.382683 -1.000000 0.923880
v 0.382683 1.000000 0.923880
v 0.195090 -1.000000 0.980785
v 0.195090 1.000000 0.980785
v -0.000000 -1.000000 1.000000
v -0.000000 1.000000 1.000000
v -0.195091 -1.000000 0.980785
v -0.195091 1.000000 0.980785
v -0.382684 -1.000000 0.923879
v -0.382684 1.000000 0.923879
v -0.555571 -1.000000 0.831469
v -0.555571 1.000000 0.831469
v -0.707107 -1.000000 0.707106
v -0.707107 1.000000 0.707106
v -0.831470 -1.000000 0.555570
v -0.831470 1.000000 0.555570
v -0.923880 -1.000000 0.382683
v -0.923880 1.000000 0.382683
v -0.980785 -1.000000 0.195089
v -0.980785 1.000000 0.195089
v -1.000000 -1.000000 -0.000001
v -1.000000 1.000000 -0.000001
v -0.980785 -1.000000 -0.195091
v -0.980785 1.000000 -0.195091
v -0.923879 -1.000000 -0.382684
v -0.923879 1.000000 -0.382684
v -0.831469 -1.000000 -0.555571
v -0.831469 1.000000 -0.555571
v -0.707106 -1.000000 -0.707108
v -0.707106 1.000000 -0.707108
v -0.555569 -1.000000 -0.831470
v -0.555569 1.000000 -0.831470
v -0.382682 -1.000000 -0.923880
v -0.382682 1.000000 -0.923880
v -0.195089 -1.000000 -0.980786
v -0.195089 1.000000 -0.980786
vt 1.000000 1.000000
vt 0.968750 0.500000
vt 1.000000 0.500000
vt 0.968750 1.000000
vt 0.937500 0.500000
vt 0.937500 1.000000
vt 0.906250 0.500000
vt 0.906250 1.000000
vt 0.875000 0.500000
vt 0.875000 1.000000
vt 0.843750 0.500000
vt 0.843750 1.000000
vt 0.812500 0.500000
vt 0.812500 1.000000
vt 0.781250 0.500000
vt 0.781250 1.000000
vt 0.750000 0.500000
vt 0.750000 1.000000
vt 0.718750 0.500000
vt 0.718750 1.000000
vt 0.687500 0.500000
vt 0.687500 1.000000
vt 0.656250 0.500000
vt 0.656250 1.000000
vt 0.625000 0.500000
vt 0.625000 1.000000
vt 0.593750 0.500000
vt 0.593750 1.000000
vt 0.562500 0.500000
vt 0.562500 1.000000
vt 0.531250 0.500000
vt 0.531250 1.000000
vt 0.500000 0.500000
vt 0.500000 1.000000
vt 0.468750 0.500000
vt 0.468750 1.000000
vt 0.437500 0.500000
vt 0.437500 1.000000
vt 0.406250 0.500000
vt 0.406250 1.000000
vt 0.375000 0.500000
vt 0.375000 1.000000
vt 0.343750 0.500000
vt 0.343750 1.000000
vt 0.312500 0.500000
vt 0.312500 1.000000
vt 0.281250 0.500000
vt 0.281250 1.000000
vt 0.250000 0.500000
vt 0.250000 1.000000
vt 0.218750 0.500000
vt 0.218750 1.000000
vt 0.187500 0.500000
vt 0.187500 1.000000
vt 0.156250 0.500000
vt 0.156250 1.000000
vt 0.125000 0.500000
vt 0.125000 1.000000
vt 0.093750 0.500000
vt 0.093750 1.000000
vt 0.062500 0.500000
vt 0.028269 0.341844
vt 0.158156 0.028269
vt 0.471731 0.158156
vt 0.062500 1.000000
vt 0.031250 0.500000
vt 0.031250 1.000000
vt 0.000000 0.500000
vt 0.985388 0.296822
vt 0.796822 0.014612
vt 0.514611 0.203179
vt 0.341844 0.471731
vt 0.296822 0.485388
vt 0.250000 0.490000
vt 0.203179 0.485389
vt 0.158156 0.471731
vt 0.116663 0.449553
vt 0.080295 0.419706
vt 0.050447 0.383337
vt 0.014612 0.296822
vt 0.010000 0.250000
vt 0.014611 0.203179
vt 0.028269 0.158156
vt 0.050447 0.116663
vt 0.080294 0.080294
vt 0.116663 0.050447
vt 0.203178 0.014612
vt 0.250000 0.010000
vt 0.296822 0.014612
vt 0.341844 0.028269
vt 0.383337 0.050447
vt 0.419706 0.080294
vt 0.449553 0.116663
vt 0.485388 0.203178
vt 0.490000 0.250000
vt 0.485388 0.296822
vt 0.471731 0.341844
vt 0.449553 0.383337
vt 0.419706 0.419706
vt 0.383337 0.449553
vt 0.000000 1.000000
vt 0.703179 0.485389
vt 0.750000 0.490000
vt 0.796822 0.485388
vt 0.841844 0.471731
vt 0.883337 0.449553
vt 0.919706 0.419706
vt 0.949553 0.383337
vt 0.971731 0.341844
vt 0.990000 0.250000
vt 0.985388 0.203178
vt 0.971731 0.158156
vt 0.949553 0.116663
vt 0.919706 0.080294
vt 0.883337 0.050447
vt 0.841844 0.028269
vt 0.750000 0.010000
vt 0.703178 0.014612
vt 0.658156 0.028269
vt 0.616663 0.050447
vt 0.580294 0.080294
vt 0.550447 0.116663
vt 0.528269 0.158156
vt 0.510000 0.250000
vt 0.514612 0.296822
vt 0.528269 0.341844
vt 0.550447 0.383337
vt 0.580295 0.419706
vt 0.616663 0.449553
vt 0.658156 0.471731
vn 0.0270 0.5563 -0.8305
vn 0.1149 -0.7086 -0.6962
vn -0.0311 -0.3175 -0.9478
vn 0.2154 0.3174 -0.9235
vn 0.3339 -0.3174 -0.8875
vn 0.1148 -0.7086 -0.6962
vn 0.1444 0.9368 -0.3186
vn 0.2353 -0.8952 -0.3785
vn 0.3339 -0.3175 -0.8875
vn 0.5524 0.3174 -0.7707
vn 0.6482 -0.3174 -0.6922
vn 0.4367 0.8012 -0.4090
vn 0.6754 -0.5563 -0.4841
vn 0.6482 -0.3175 -0.6922
vn 0.8053 0.3174 -0.5007
vn 0.7569 -0.5563 -0.3430
vn 0.6754 -0.5564 -0.4841
vn 0.6604 0.7086 -0.2485
vn 0.3407 -0.9368 -0.0794
vn 0.7568 -0.5564 -0.3430
vn 0.8199 0.5563 -0.1353
vn 0.9478 -0.3174 -0.0311
vn 0.8305 0.5563 0.0272
vn 0.8199 -0.5563 0.1353
vn 0.9478 -0.3175 -0.0311
vn 0.9235 0.3174 0.2154
vn 0.7777 -0.5563 0.2926
vn 0.8199 -0.5564 0.1353
vn 0.2387 0.9651 0.1081
vn 0.5992 -0.7086 0.3726
vn 0.7777 -0.5564 0.2926
vn 0.7707 0.3174 0.5524
vn 0.6065 -0.5563 0.5680
vn 0.5993 -0.7086 0.3725
vn 0.4823 0.7086 0.5150
vn 0.4841 -0.5563 0.6754
vn 0.6065 -0.5564 0.5680
vn 0.5007 0.3174 0.8053
vn 0.3914 -0.3174 0.8637
vn 0.4841 -0.5564 0.6754
vn 0.2107 0.8012 0.5600
vn 0.0892 -0.9198 0.3822
vn 0.3914 -0.3175 0.8637
vn 0.1544 0.3174 0.9356
vn 0.0311 -0.3174 0.9478
vn 0.0892 -0.9197 0.3822
vn -0.0196 0.8012 0.5980
vn -0.0974 -0.8012 0.5904
vn 0.0311 -0.3175 0.9478
vn -0.2154 0.3174 0.9235
vn -0.3339 -0.3174 0.8875
vn -0.0975 -0.8013 0.5903
vn -0.1621 0.9198 0.3575
vn -0.3159 -0.8012 0.5082
vn -0.3339 -0.3175 0.8875
vn -0.5524 0.3174 0.7707
vn -0.6482 -0.3174 0.6922
vn -0.3160 -0.8013 0.5081
vn -0.6065 0.5563 0.5680
vn -0.5735 -0.7086 0.4110
vn -0.6482 -0.3175 0.6922
vn -0.7057 0.5563 0.4388
vn -0.8637 -0.3174 0.3914
vn -0.5735 -0.7086 0.4111
vn -0.6604 0.7086 0.2485
vn -0.3407 -0.9368 0.0794
vn -0.8637 -0.3175 0.3914
vn -0.8199 0.5563 0.1353
vn -0.9478 -0.3174 0.0311
vn -0.8305 0.5563 -0.0273
vn -0.5904 -0.8012 -0.0974
vn -0.9478 -0.3175 0.0311
vn -0.9235 0.3174 -0.2154
vn -0.8875 -0.3174 -0.3339
vn -0.5903 -0.8013 -0.0975
vn -0.3186 0.9368 -0.1444
vn -0.5992 -0.7086 -0.3726
vn -0.8875 -0.3175 -0.3339
vn -0.7707 0.3174 -0.5524
vn -0.6065 -0.5563 -0.5680
vn -0.5993 -0.7086 -0.3725
vn -0.4090 0.8012 -0.4367
vn -0.4841 -0.5563 -0.6754
vn -0.6065 -0.5564 -0.5680
vn -0.5007 0.3174 -0.8053
vn -0.3914 -0.3174 -0.8637
vn -0.4841 -0.5564 -0.6754
vn -0.1620 0.9197 0.3575
vn 0.2387 0.9651 0.1082
vn -0.2485 0.7086 -0.6604
vn -0.0716 -0.9491 -0.3068
vn -0.3914 -0.3175 -0.8637
vn -0.1353 0.5563 -0.8199
vn -0.0311 -0.3174 -0.9478
vn 0.3407 -0.9368 -0.0795
vn -0.3407 -0.9368 0.0795
vn 0.0273 0.5563 -0.8305
vn 0.2154 0.3175 -0.9235
vn 0.1443 0.9368 -0.3186
vn 0.5524 0.3175 -0.7707
vn 0.5524 0.3174 -0.7708
vn 0.4367 0.8013 -0.4090
vn 0.4368 0.8012 -0.4089
vn 0.8053 0.3175 -0.5007
vn 0.8199 0.5564 -0.1353
vn 0.8305 0.5564 0.0273
vn 0.8305 0.5563 0.0273
vn 0.9235 0.3175 0.2154
vn 0.2387 0.9650 0.1082
vn 0.7777 -0.5563 0.2927
vn 0.7707 0.3175 0.5524
vn 0.7708 0.3174 0.5524
vn 0.4823 0.7086 0.5151
vn 0.5007 0.3175 0.8053
vn 0.2108 0.8013 0.5600
vn 0.3915 -0.3174 0.8637
vn 0.1544 0.3175 0.9356
vn -0.0196 0.8013 0.5980
vn -0.0197 0.8012 0.5980
vn -0.2154 0.3175 0.9235
vn -0.1621 0.9197 0.3575
vn -0.5524 0.3175 0.7707
vn -0.3159 -0.8012 0.5081
vn -0.5524 0.3174 0.7708
vn -0.6065 0.5564 0.5680
vn -0.7057 0.5564 0.4387
vn -0.7057 0.5563 0.4387
vn -0.8637 -0.3174 0.3915
vn -0.8199 0.5564 0.1353
vn -0.8305 0.5564 -0.0273
vn -0.9235 0.3175 -0.2154
vn -0.3186 0.9368 -0.1443
vn -0.7707 0.3175 -0.5524
vn -0.7708 0.3174 -0.5524
vn -0.4090 0.8013 -0.4367
vn -0.4089 0.8012 -0.4368
vn -0.5007 0.3175 -0.8053
vn -0.4839 -0.5563 -0.6755
vn -0.3915 -0.3174 -0.8637
vn 0.0272 0.5563 -0.8305
vn -0.1352 0.5563 -0.8199
vn -0.5006 0.3175 -0.8053
vn -0.4090 0.8012 -0.4368
vn -0.8305 0.5563 -0.0272
vn -0.8199 0.5563 0.1352
vn -0.6066 0.5563 0.5679
vn 0.1543 0.3175 0.9356
vn 0.5006 0.3175 0.8053
vn 0.8199 0.5563 -0.1352
vn 0.8053 0.3175 -0.5006
vn 0.4368 0.8012 -0.4090
vn -0.1353 0.5564 -0.8199
vn -0.0715 -0.9491 -0.3068
vn 0.0273 0.5564 -0.8305
vn 0.6481 -0.3175 -0.6922
vn 0.6754 -0.5563 -0.4840
vn 0.7568 -0.5563 -0.3430
vn 0.5992 -0.7086 0.3725
vn 0.3915 -0.3175 0.8637
vn -0.6481 -0.3175 0.6922
vn -0.8637 -0.3175 0.3915
vn -0.5992 -0.7086 -0.3725
vn -0.3915 -0.3175 -0.8637
vn 0.0891 -0.9197 0.3822
usemtl None
s off
f 2/1/1 3/2/2 1/3/3
f 4/4/4 5/5/5 3/2/6
f 6/6/7 7/7/8 5/5/9
f 8/8/10 9/9/11 7/7/8
f 10/10/12 11/11/13 9/9/14
f 12/12/15 13/13/16 11/11/17
f 14/14/18 15/15/19 13/13/20
f 16/16/21 17/17/22 15/15/19
f 18/18/23 19/19/24 17/17/25
f 20/20/26 21/21/27 19/19/28
f 22/22/29 23/23/30 21/21/31
f 24/24/32 25/25/33 23/23/34
f 26/26/35 27/27/36 25/25/37
f 28/28/38 29/29/39 27/27/40
f 30/30/41 31/31/42 29/29/43
f 32/32/44 33/33/45 31/31/46
f 34/34/47 35/35/48 33/33/49
f 36/36/50 37/37/51 35/35/52
f 38/38/53 39/39/54 37/37/55
f 40/40/56 41/41/57 39/39/58
f 42/42/59 43/43/60 41/41/61
f 44/44/62 45/45/63 43/43/64
f 46/46/65 47/47/66 45/45/67
f 48/48/68 49/49/69 47/47/66
f 50/50/70 51/51/71 49/49/72
f 52/52/73 53/53/74 51/51/75
f 54/54/76 55/55/77 53/53/78
f 56/56/79 57/57/80 55/55/81
f 58/58/82 59/59/83 57/57/84
f 60/60/85 61/61/86 59/59/87
f 54/62/76 38/63/88 22/64/89
f 62/65/90 63/66/91 61/61/92
f 64/67/93 1/68/94 63/66/91
f 15/69/95 31/70/46 47/71/96
f 2/1/97 4/4/98 3/2/2
f 4/4/4 6/6/7 5/5/5
f 6/6/99 8/8/100 7/7/8
f 8/8/101 10/10/102 9/9/11
f 10/10/103 12/12/104 11/11/13
f 12/12/15 14/14/18 13/13/16
f 14/14/18 16/16/105 15/15/19
f 16/16/21 18/18/106 17/17/22
f 18/18/107 20/20/108 19/19/24
f 20/20/26 22/22/109 21/21/110
f 22/22/89 24/24/111 23/23/30
f 24/24/112 26/26/113 25/25/33
f 26/26/35 28/28/114 27/27/36
f 28/28/38 30/30/115 29/29/116
f 30/30/41 32/32/117 31/31/42
f 32/32/44 34/34/118 33/33/45
f 34/34/119 36/36/120 35/35/48
f 36/36/50 38/38/121 37/37/51
f 38/38/53 40/40/122 39/39/123
f 40/40/124 42/42/125 41/41/57
f 42/42/59 44/44/126 43/43/60
f 44/44/127 46/46/65 45/45/128
f 46/46/65 48/48/129 47/47/66
f 48/48/68 50/50/130 49/49/69
f 50/50/70 52/52/131 51/51/71
f 52/52/73 54/54/76 53/53/74
f 54/54/132 56/56/133 55/55/77
f 56/56/134 58/58/135 57/57/80
f 58/58/136 60/60/137 59/59/138
f 60/60/85 62/65/90 61/61/139
f 6/72/7 4/73/98 2/74/97
f 2/74/140 64/75/93 6/72/7
f 64/75/141 62/76/90 6/72/7
f 62/76/90 60/77/142 58/78/143
f 58/78/143 56/79/133 54/62/76
f 54/62/76 52/80/131 50/81/70
f 50/81/144 48/82/68 54/62/76
f 48/82/145 46/83/65 54/62/76
f 46/83/65 44/84/127 38/63/88
f 44/84/62 42/85/146 38/63/88
f 42/85/146 40/86/122 38/63/88
f 38/63/88 36/87/120 34/88/47
f 34/88/119 32/89/147 30/90/41
f 30/90/41 28/91/148 26/92/35
f 26/92/113 24/93/111 22/64/89
f 22/64/89 20/94/108 18/95/107
f 18/95/23 16/96/21 22/64/89
f 16/96/149 14/97/18 22/64/89
f 14/97/18 12/98/150 10/99/151
f 10/99/151 8/100/100 6/72/7
f 62/76/90 58/78/82 6/72/7
f 58/78/143 54/62/76 6/72/7
f 38/63/88 34/88/119 22/64/89
f 34/88/119 30/90/41 22/64/89
f 30/90/41 26/92/35 22/64/89
f 14/97/18 10/99/12 22/64/89
f 10/99/151 6/72/7 22/64/89
f 54/62/76 46/83/65 38/63/88
f 6/72/7 54/62/76 22/64/89
f 62/65/90 64/67/152 63/66/153
f 64/67/93 2/101/154 1/68/94
f 63/102/91 1/103/3 3/104/2
f 3/104/6 5/105/9 7/106/8
f 7/106/8 9/107/155 11/108/13
f 11/108/156 13/109/16 7/106/8
f 13/109/157 15/69/95 7/106/8
f 15/69/95 17/110/25 19/111/24
f 19/111/24 21/112/110 15/69/95
f 21/112/27 23/113/158 15/69/95
f 23/113/30 25/114/33 31/70/46
f 25/114/33 27/115/36 31/70/42
f 27/115/36 29/116/159 31/70/46
f 31/70/46 33/117/49 35/118/48
f 35/118/48 37/119/55 39/120/54
f 39/120/54 41/121/160 43/122/64
f 43/122/64 45/123/161 47/71/96
f 47/71/96 49/124/72 51/125/71
f 51/125/71 53/126/78 55/127/162
f 55/127/77 57/128/80 63/102/91
f 57/128/80 59/129/83 63/102/91
f 59/129/83 61/130/163 63/102/91
f 63/102/91 3/104/2 7/106/8
f 31/70/46 35/118/48 47/71/96
f 35/118/48 39/120/54 47/71/96
f 39/120/54 43/122/64 47/71/96
f 47/71/96 51/125/71 63/102/91
f 51/125/71 55/127/77 63/102/91
f 63/102/91 7/106/8 15/69/95
f 15/69/95 23/113/30 31/70/164
f 63/102/91 15/69/95 47/71/96
